<?xml version="1.0" encoding="utf-8"?>
<!-- Generator: Adobe Illustrator 27.5.0, SVG Export Plug-In . SVG Version: 6.00 Build 0)  -->
<svg version="1.1" xmlns="http://www.w3.org/2000/svg" xmlns:xlink="http://www.w3.org/1999/xlink" x="0px" y="0px"
	 viewBox="0 0 500 500" style="enable-background:new 0 0 500 500;" xml:space="preserve">
<g id="Background_Simple">
	<g>
		<path style="fill:#C6FF00;" d="M377.698,228.662c0,0,3.471-11.749,15.245-36.612c16.109-34.02-7.049-72.263-52.947-92.206
			c-53.799-23.376-123.012-14.668-172.901-0.381c-41.266,11.818-58.31,42.678-65.738,73.442
			c-3.762,15.581-4.478,31.528-6.851,47.325c-3.164,21.062-10.06,42.454-16.101,63.082c-7.297,24.921-14.53,53.058-4.23,79.959
			c31.726,82.862,206.082,86.436,274.7,48.092c38.786-21.674,53.081-53.539,39.981-90.729
			C379.163,293.119,369.739,255.524,377.698,228.662z"/>
		<path style="opacity:0.7;fill:#FFFFFF;" d="M377.698,228.662c0,0,3.471-11.749,15.245-36.612
			c16.109-34.02-7.049-72.263-52.947-92.206c-53.799-23.376-123.012-14.668-172.901-0.381
			c-41.266,11.818-58.31,42.678-65.738,73.442c-3.762,15.581-4.478,31.528-6.851,47.325c-3.164,21.062-10.06,42.454-16.101,63.082
			c-7.297,24.921-14.53,53.058-4.23,79.959c31.726,82.862,206.082,86.436,274.7,48.092c38.786-21.674,53.081-53.539,39.981-90.729
			C379.163,293.119,369.739,255.524,377.698,228.662z"/>
	</g>
</g>
<g id="Notebook">
	<g>
		<path style="opacity:0.3;" d="M334.924,156.186c0.52-0.081,0.876-0.568,0.795-1.088c-0.081-0.52-0.568-0.876-1.088-0.795
			l-3.793,0.59l-0.113-0.724l3.793-0.59c0.52-0.081,0.876-0.568,0.795-1.088c-0.081-0.52-0.568-0.876-1.088-0.795l-3.793,0.59
			l-0.813-5.221l-11.384-10.288L169.168,410.753l11.421,7.713l186.744-29.062l-2.086-13.402l3.793-0.59
			c0.52-0.081,0.876-0.568,0.795-1.088c-0.081-0.52-0.568-0.876-1.088-0.795l-3.793,0.59l-0.113-0.724l3.794-0.59
			c0.52-0.081,0.876-0.568,0.795-1.088c-0.081-0.52-0.568-0.876-1.088-0.795l-3.793,0.59l-1.097-7.047l3.794-0.59
			c0.52-0.081,0.876-0.568,0.795-1.088c-0.081-0.52-0.568-0.876-1.088-0.795l-3.793,0.59l-0.113-0.724l3.793-0.59
			c0.52-0.081,0.876-0.568,0.795-1.088c-0.081-0.52-0.568-0.876-1.088-0.795l-3.793,0.59l-1.097-7.047l3.793-0.59
			c0.52-0.081,0.876-0.568,0.795-1.088c-0.081-0.52-0.568-0.876-1.088-0.795l-3.793,0.59l-0.113-0.724l3.793-0.59
			c0.52-0.081,0.876-0.568,0.795-1.088c-0.081-0.52-0.568-0.876-1.088-0.795l-3.793,0.59l-1.097-7.047l3.793-0.59
			c0.52-0.081,0.876-0.568,0.795-1.088c-0.081-0.52-0.568-0.876-1.088-0.795l-3.793,0.59l-0.113-0.724l3.793-0.59
			c0.52-0.081,0.876-0.568,0.795-1.088c-0.081-0.52-0.568-0.876-1.088-0.795l-3.793,0.59l-1.097-7.047l3.793-0.59
			c0.52-0.081,0.876-0.568,0.795-1.088c-0.081-0.52-0.568-0.876-1.088-0.795l-3.793,0.59l-0.113-0.724l3.794-0.59
			c0.52-0.081,0.876-0.568,0.795-1.088c-0.081-0.52-0.568-0.876-1.088-0.795l-3.793,0.59l-1.097-7.047l3.794-0.59
			c0.52-0.081,0.876-0.568,0.795-1.088c-0.081-0.52-0.568-0.876-1.088-0.795l-3.793,0.59l-0.113-0.724l3.794-0.59
			c0.52-0.081,0.876-0.568,0.795-1.088c-0.081-0.52-0.568-0.876-1.088-0.795l-3.793,0.59l-1.097-7.047l3.794-0.59
			c0.52-0.081,0.876-0.568,0.795-1.088c-0.081-0.52-0.568-0.876-1.088-0.795l-3.793,0.59l-0.113-0.724l3.793-0.59
			c0.52-0.081,0.876-0.568,0.795-1.088c-0.081-0.52-0.568-0.876-1.088-0.795l-3.793,0.59l-1.097-7.047l3.793-0.59
			c0.52-0.081,0.876-0.568,0.795-1.088c-0.081-0.52-0.568-0.876-1.088-0.795l-3.793,0.59l-0.113-0.724l3.793-0.59
			c0.52-0.081,0.876-0.568,0.795-1.088c-0.081-0.52-0.568-0.876-1.088-0.795l-3.793,0.59l-1.097-7.047l3.793-0.59
			c0.52-0.081,0.876-0.568,0.795-1.088c-0.081-0.52-0.568-0.876-1.088-0.795l-3.793,0.59l-0.113-0.724l3.794-0.59
			c0.52-0.081,0.876-0.568,0.795-1.088c-0.081-0.52-0.568-0.876-1.088-0.795l-3.793,0.59l-1.097-7.047l3.793-0.59
			c0.52-0.081,0.876-0.568,0.795-1.088c-0.081-0.52-0.568-0.876-1.088-0.795l-3.793,0.59l-0.113-0.724l3.794-0.59
			c0.52-0.081,0.876-0.568,0.795-1.088c-0.081-0.52-0.568-0.876-1.088-0.795l-3.793,0.59l-1.097-7.047l3.794-0.59
			c0.52-0.081,0.876-0.568,0.795-1.088c-0.081-0.52-0.568-0.876-1.088-0.795l-3.793,0.59l-0.113-0.724l3.793-0.59
			c0.52-0.081,0.876-0.568,0.795-1.088c-0.081-0.52-0.568-0.876-1.088-0.795l-3.793,0.59l-1.097-7.047l3.793-0.59
			c0.52-0.081,0.876-0.568,0.795-1.088c-0.081-0.52-0.568-0.876-1.088-0.795l-3.793,0.59l-0.113-0.724l3.793-0.59
			c0.52-0.081,0.876-0.568,0.795-1.088c-0.081-0.52-0.568-0.876-1.088-0.795l-3.793,0.59l-1.097-7.047l3.793-0.59
			c0.52-0.081,0.876-0.568,0.795-1.088c-0.081-0.52-0.568-0.876-1.088-0.795l-3.793,0.59l-0.113-0.724l3.793-0.59
			c0.52-0.081,0.876-0.568,0.795-1.088c-0.081-0.52-0.568-0.876-1.088-0.795l-3.793,0.59l-1.097-7.047l3.793-0.59
			c0.52-0.081,0.876-0.568,0.795-1.088c-0.081-0.52-0.568-0.876-1.088-0.795l-3.793,0.59l-0.113-0.724l3.794-0.59
			c0.52-0.081,0.876-0.568,0.795-1.088c-0.081-0.52-0.568-0.876-1.088-0.795l-3.793,0.59l-1.097-7.047l3.793-0.59
			c0.52-0.081,0.876-0.568,0.795-1.088c-0.081-0.52-0.568-0.876-1.088-0.795l-3.793,0.59l-0.113-0.724l3.794-0.59
			c0.52-0.081,0.876-0.568,0.795-1.088c-0.081-0.52-0.568-0.876-1.088-0.795l-3.793,0.59l-1.097-7.047l3.793-0.59
			c0.52-0.081,0.876-0.568,0.795-1.088c-0.081-0.52-0.568-0.876-1.088-0.795l-3.793,0.59l-0.113-0.724l3.793-0.59
			c0.52-0.081,0.876-0.568,0.795-1.088c-0.081-0.52-0.568-0.876-1.088-0.795l-3.793,0.59l-1.097-7.047l3.793-0.59
			c0.52-0.081,0.876-0.568,0.795-1.088c-0.081-0.52-0.568-0.876-1.088-0.795l-3.793,0.59l-0.113-0.724l3.793-0.59
			c0.52-0.081,0.876-0.568,0.795-1.088c-0.081-0.52-0.568-0.876-1.088-0.795l-3.793,0.59l-1.097-7.047l3.793-0.59
			c0.52-0.081,0.876-0.568,0.795-1.088c-0.081-0.52-0.568-0.876-1.088-0.795l-3.793,0.59l-0.113-0.724l3.793-0.59
			c0.52-0.081,0.876-0.568,0.795-1.088c-0.081-0.52-0.568-0.876-1.088-0.795l-3.793,0.59l-1.097-7.047l3.793-0.59
			c0.52-0.081,0.876-0.568,0.795-1.088c-0.081-0.52-0.568-0.876-1.088-0.795l-3.793,0.59l-0.113-0.724l3.793-0.59
			c0.52-0.081,0.876-0.568,0.795-1.088c-0.081-0.52-0.568-0.876-1.088-0.795l-3.793,0.59l-1.097-7.047L334.924,156.186z"/>
		<g>
			<path style="fill:#263238;stroke:#263238;stroke-linecap:round;stroke-miterlimit:10;" d="M175.2,413.393l173.153-26.947
				l-38.648-248.344l-173.153,26.946c-4.418,0.688-7.442,4.827-6.755,9.245l36.158,232.344
				C166.643,411.057,170.782,414.081,175.2,413.393z"/>
			<g>
				<path style="fill:#FFFFFF;stroke:#263238;stroke-linecap:round;stroke-miterlimit:10;" d="M168.574,406.231l9.865-1.535
					l-4.291-27.572l-9.865,1.535c-1.446,0.225-2.436,1.58-2.211,3.026l3.476,22.335
					C165.773,405.466,167.128,406.456,168.574,406.231z"/>
				<path style="fill:#C6FF00;stroke:#263238;stroke-linecap:round;stroke-miterlimit:10;" d="M164.063,377.247l9.865-1.535
					l-4.291-27.572l-9.865,1.535c-1.446,0.225-2.436,1.58-2.211,3.026l3.476,22.335
					C161.262,376.482,162.617,377.472,164.063,377.247z"/>
				<path style="fill:#FFFFFF;stroke:#263238;stroke-linecap:round;stroke-miterlimit:10;" d="M159.553,348.262l9.865-1.535
					l-4.291-27.572l-9.865,1.535c-1.446,0.225-2.436,1.58-2.211,3.026l3.476,22.335
					C156.752,347.497,158.106,348.487,159.553,348.262z"/>
				<path style="fill:#C6FF00;stroke:#263238;stroke-linecap:round;stroke-miterlimit:10;" d="M155.042,319.278l9.865-1.535
					l-4.291-27.572l-9.865,1.535c-1.446,0.225-2.436,1.58-2.211,3.026l3.476,22.335
					C152.241,318.513,153.596,319.503,155.042,319.278z"/>
			</g>
			<path style="fill:#FFFFFF;stroke:#263238;stroke-linecap:round;stroke-miterlimit:10;" d="M146.241,262.721l5.912-0.92
				l-15.07-96.834l181.153-28.191l38.648,248.344l-181.153,28.191l-19.287-123.938l-5.912,0.92
				c-1.446,0.225-2.801-0.765-3.026-2.211l-3.476-22.335C143.804,264.301,144.794,262.946,146.241,262.721z"/>
			<polygon style="fill:#C6FF00;" points="165.612,217.876 166.205,231.446 233.814,220.419 232.045,209.055 			"/>
			<g>
				<g>
					<path style="fill:#263238;stroke:#263238;stroke-linecap:round;stroke-miterlimit:10;" d="M308.166,151.994
						c0.301,1.932,2.11,3.254,4.042,2.953c1.932-0.301,3.254-2.11,2.953-4.042c-0.301-1.932-2.11-3.254-4.042-2.953
						C309.188,148.253,307.866,150.063,308.166,151.994z"/>
					<path style="fill:#FFFFFF;stroke:#263238;stroke-linecap:round;stroke-miterlimit:10;" d="M312.031,150.895l10.575-1.646
						c0.52-0.081,0.876-0.568,0.795-1.088l0,0c-0.081-0.52-0.568-0.876-1.088-0.795l-10.575,1.646
						c-0.52,0.081-0.876,0.568-0.795,1.088l0,0C311.024,150.62,311.511,150.976,312.031,150.895z"/>
					<path style="fill:#FFFFFF;stroke:#263238;stroke-linecap:round;stroke-miterlimit:10;" d="M312.437,153.503l10.575-1.646
						c0.52-0.081,0.876-0.568,0.795-1.088l0,0c-0.081-0.52-0.568-0.876-1.088-0.795l-10.575,1.646
						c-0.52,0.081-0.876,0.568-0.795,1.088l0,0C311.43,153.228,311.917,153.584,312.437,153.503z"/>
				</g>
				<g>
					<path style="fill:#263238;stroke:#263238;stroke-linecap:round;stroke-miterlimit:10;" d="M309.962,163.533
						c0.301,1.932,2.11,3.254,4.042,2.953c1.932-0.301,3.254-2.11,2.953-4.042s-2.11-3.254-4.042-2.953
						C310.983,159.791,309.661,161.601,309.962,163.533z"/>
					<path style="fill:#FFFFFF;stroke:#263238;stroke-linecap:round;stroke-miterlimit:10;" d="M313.827,162.434l10.575-1.646
						c0.52-0.081,0.876-0.568,0.795-1.088l0,0c-0.081-0.52-0.568-0.876-1.088-0.795l-10.575,1.646
						c-0.52,0.081-0.876,0.568-0.795,1.088l0,0C312.819,162.158,313.307,162.514,313.827,162.434z"/>
					<path style="fill:#FFFFFF;stroke:#263238;stroke-linecap:round;stroke-miterlimit:10;" d="M314.233,165.041l10.575-1.646
						c0.52-0.081,0.876-0.568,0.795-1.088l0,0c-0.081-0.52-0.568-0.876-1.088-0.795l-10.575,1.646
						c-0.52,0.081-0.876,0.568-0.795,1.088l0,0C313.225,164.766,313.712,165.122,314.233,165.041z"/>
				</g>
				<g>
					<path style="fill:#263238;stroke:#263238;stroke-linecap:round;stroke-miterlimit:10;" d="M311.757,175.071
						c0.301,1.932,2.11,3.254,4.042,2.953c1.932-0.301,3.254-2.11,2.953-4.042c-0.301-1.932-2.11-3.254-4.042-2.953
						C312.779,171.329,311.457,173.139,311.757,175.071z"/>
					<path style="fill:#FFFFFF;stroke:#263238;stroke-linecap:round;stroke-miterlimit:10;" d="M315.622,173.972l10.575-1.646
						c0.52-0.081,0.876-0.568,0.795-1.088v0c-0.081-0.52-0.568-0.876-1.088-0.795l-10.575,1.646
						c-0.52,0.081-0.876,0.568-0.795,1.088l0,0C314.615,173.697,315.102,174.053,315.622,173.972z"/>
					<path style="fill:#FFFFFF;stroke:#263238;stroke-linecap:round;stroke-miterlimit:10;" d="M316.028,176.579l10.575-1.646
						c0.52-0.081,0.876-0.568,0.795-1.088v0c-0.081-0.52-0.568-0.876-1.088-0.795l-10.575,1.646
						c-0.52,0.081-0.876,0.568-0.795,1.088l0,0C315.021,176.304,315.508,176.66,316.028,176.579z"/>
				</g>
				<g>
					<path style="fill:#263238;stroke:#263238;stroke-linecap:round;stroke-miterlimit:10;" d="M313.553,186.609
						c0.301,1.932,2.11,3.254,4.042,2.953c1.932-0.301,3.254-2.11,2.953-4.042c-0.301-1.932-2.11-3.254-4.042-2.953
						C314.575,182.868,313.252,184.677,313.553,186.609z"/>
					<path style="fill:#FFFFFF;stroke:#263238;stroke-linecap:round;stroke-miterlimit:10;" d="M317.418,185.51l10.575-1.646
						c0.52-0.081,0.876-0.568,0.795-1.088l0,0c-0.081-0.52-0.568-0.876-1.088-0.795l-10.575,1.646
						c-0.52,0.081-0.876,0.568-0.795,1.088l0,0C316.411,185.235,316.898,185.591,317.418,185.51z"/>
					<path style="fill:#FFFFFF;stroke:#263238;stroke-linecap:round;stroke-miterlimit:10;" d="M317.824,188.117l10.575-1.646
						c0.52-0.081,0.876-0.568,0.795-1.088l0,0c-0.081-0.52-0.568-0.876-1.088-0.795l-10.575,1.646
						c-0.52,0.081-0.876,0.568-0.795,1.088l0,0C316.816,187.842,317.304,188.198,317.824,188.117z"/>
				</g>
				<g>
					<path style="fill:#263238;stroke:#263238;stroke-linecap:round;stroke-miterlimit:10;" d="M315.349,198.147
						c0.301,1.932,2.11,3.254,4.042,2.953c1.932-0.301,3.254-2.11,2.953-4.042c-0.301-1.932-2.11-3.254-4.042-2.953
						C316.37,194.406,315.048,196.215,315.349,198.147z"/>
					<path style="fill:#FFFFFF;stroke:#263238;stroke-linecap:round;stroke-miterlimit:10;" d="M319.214,197.048l10.575-1.646
						c0.52-0.081,0.876-0.568,0.795-1.088l0,0c-0.081-0.52-0.568-0.876-1.088-0.795l-10.575,1.646
						c-0.52,0.081-0.876,0.568-0.795,1.088l0,0C318.206,196.773,318.693,197.129,319.214,197.048z"/>
					<path style="fill:#FFFFFF;stroke:#263238;stroke-linecap:round;stroke-miterlimit:10;" d="M319.619,199.656l10.575-1.646
						c0.52-0.081,0.876-0.568,0.795-1.088l0,0c-0.081-0.52-0.568-0.876-1.088-0.795l-10.575,1.646
						c-0.52,0.081-0.876,0.568-0.795,1.088l0,0C318.612,199.381,319.099,199.737,319.619,199.656z"/>
				</g>
				<g>
					<path style="fill:#263238;stroke:#263238;stroke-linecap:round;stroke-miterlimit:10;" d="M317.144,209.685
						c0.301,1.932,2.11,3.254,4.042,2.953c1.932-0.301,3.254-2.11,2.953-4.042c-0.301-1.932-2.11-3.254-4.042-2.953
						C318.166,205.944,316.844,207.754,317.144,209.685z"/>
					<path style="fill:#FFFFFF;stroke:#263238;stroke-linecap:round;stroke-miterlimit:10;" d="M321.009,208.586l10.575-1.646
						c0.52-0.081,0.876-0.568,0.795-1.088l0,0c-0.081-0.52-0.568-0.876-1.088-0.795l-10.575,1.646
						c-0.52,0.081-0.876,0.568-0.795,1.088l0,0C320.002,208.311,320.489,208.667,321.009,208.586z"/>
					<path style="fill:#FFFFFF;stroke:#263238;stroke-linecap:round;stroke-miterlimit:10;" d="M321.415,211.194l10.575-1.646
						c0.52-0.081,0.876-0.568,0.795-1.088l0,0c-0.081-0.52-0.568-0.876-1.088-0.795l-10.575,1.646
						c-0.52,0.081-0.876,0.568-0.795,1.088l0,0C320.408,210.919,320.895,211.275,321.415,211.194z"/>
				</g>
				<g>
					<path style="fill:#263238;stroke:#263238;stroke-linecap:round;stroke-miterlimit:10;" d="M318.94,221.223
						c0.301,1.932,2.11,3.254,4.042,2.953c1.932-0.301,3.254-2.11,2.953-4.042c-0.301-1.932-2.11-3.254-4.042-2.953
						C319.961,217.482,318.639,219.292,318.94,221.223z"/>
					<path style="fill:#FFFFFF;stroke:#263238;stroke-linecap:round;stroke-miterlimit:10;" d="M322.805,220.124l10.575-1.646
						c0.52-0.081,0.876-0.568,0.795-1.088l0,0c-0.081-0.52-0.568-0.876-1.088-0.795l-10.575,1.646
						c-0.52,0.081-0.876,0.568-0.795,1.088l0,0C321.797,219.849,322.285,220.205,322.805,220.124z"/>
					<path style="fill:#FFFFFF;stroke:#263238;stroke-linecap:round;stroke-miterlimit:10;" d="M323.211,222.732l10.575-1.646
						c0.52-0.081,0.876-0.568,0.795-1.088l0,0c-0.081-0.52-0.568-0.876-1.088-0.795l-10.575,1.646
						c-0.52,0.081-0.876,0.568-0.795,1.088l0,0C322.203,222.457,322.69,222.813,323.211,222.732z"/>
				</g>
				<g>
					<path style="fill:#263238;stroke:#263238;stroke-linecap:round;stroke-miterlimit:10;" d="M320.735,232.762
						c0.301,1.932,2.11,3.254,4.042,2.953c1.932-0.301,3.254-2.11,2.953-4.042c-0.301-1.932-2.11-3.254-4.042-2.953
						C321.757,229.02,320.435,230.83,320.735,232.762z"/>
					<path style="fill:#FFFFFF;stroke:#263238;stroke-linecap:round;stroke-miterlimit:10;" d="M324.6,231.663l10.575-1.646
						c0.52-0.081,0.876-0.568,0.795-1.088l0,0c-0.081-0.52-0.568-0.876-1.088-0.795l-10.575,1.646
						c-0.52,0.081-0.876,0.568-0.795,1.088l0,0C323.593,231.387,324.08,231.743,324.6,231.663z"/>
					<path style="fill:#FFFFFF;stroke:#263238;stroke-linecap:round;stroke-miterlimit:10;" d="M325.006,234.27l10.575-1.646
						c0.52-0.081,0.876-0.568,0.795-1.088l0,0c-0.081-0.52-0.568-0.876-1.088-0.795l-10.575,1.646
						c-0.52,0.081-0.876,0.568-0.795,1.088l0,0C323.999,233.995,324.486,234.351,325.006,234.27z"/>
				</g>
				<g>
					<path style="fill:#263238;stroke:#263238;stroke-linecap:round;stroke-miterlimit:10;" d="M322.531,244.3
						c0.301,1.932,2.11,3.254,4.042,2.953c1.932-0.301,3.254-2.11,2.953-4.042c-0.301-1.932-2.11-3.254-4.042-2.953
						C323.553,240.559,322.23,242.368,322.531,244.3z"/>
					<path style="fill:#FFFFFF;stroke:#263238;stroke-linecap:round;stroke-miterlimit:10;" d="M326.396,243.201l10.575-1.646
						c0.52-0.081,0.876-0.568,0.795-1.088l0,0c-0.081-0.52-0.568-0.876-1.088-0.795l-10.575,1.646
						c-0.52,0.081-0.876,0.568-0.795,1.088l0,0C325.389,242.926,325.876,243.282,326.396,243.201z"/>
					<path style="fill:#FFFFFF;stroke:#263238;stroke-linecap:round;stroke-miterlimit:10;" d="M326.802,245.808l10.575-1.646
						c0.52-0.081,0.876-0.568,0.795-1.088l0,0c-0.081-0.52-0.568-0.876-1.088-0.795l-10.575,1.646
						c-0.52,0.081-0.876,0.568-0.795,1.088l0,0C325.794,245.533,326.282,245.889,326.802,245.808z"/>
				</g>
				<g>
					<path style="fill:#263238;stroke:#263238;stroke-linecap:round;stroke-miterlimit:10;" d="M324.327,255.838
						c0.301,1.932,2.11,3.254,4.042,2.953c1.932-0.301,3.254-2.11,2.953-4.042c-0.301-1.932-2.11-3.254-4.042-2.953
						C325.348,252.097,324.026,253.906,324.327,255.838z"/>
					<path style="fill:#FFFFFF;stroke:#263238;stroke-linecap:round;stroke-miterlimit:10;" d="M328.192,254.739l10.575-1.646
						c0.52-0.081,0.876-0.568,0.795-1.088l0,0c-0.081-0.52-0.568-0.876-1.088-0.795l-10.575,1.646
						c-0.52,0.081-0.876,0.568-0.795,1.088l0,0C327.184,254.464,327.671,254.82,328.192,254.739z"/>
					<path style="fill:#FFFFFF;stroke:#263238;stroke-linecap:round;stroke-miterlimit:10;" d="M328.597,257.346l10.575-1.646
						c0.52-0.081,0.876-0.568,0.795-1.088l0,0c-0.081-0.52-0.568-0.876-1.088-0.795l-10.575,1.646
						c-0.52,0.081-0.876,0.568-0.795,1.088l0,0C327.59,257.072,328.077,257.427,328.597,257.346z"/>
				</g>
				<g>
					<path style="fill:#263238;stroke:#263238;stroke-linecap:round;stroke-miterlimit:10;" d="M326.122,267.376
						c0.301,1.932,2.11,3.254,4.042,2.953c1.932-0.301,3.254-2.11,2.953-4.042c-0.301-1.932-2.11-3.254-4.042-2.953
						C327.144,263.635,325.822,265.445,326.122,267.376z"/>
					<path style="fill:#FFFFFF;stroke:#263238;stroke-linecap:round;stroke-miterlimit:10;" d="M329.987,266.277l10.575-1.646
						c0.52-0.081,0.876-0.568,0.795-1.088l0,0c-0.081-0.52-0.568-0.876-1.088-0.795l-10.575,1.646
						c-0.52,0.081-0.876,0.568-0.795,1.088l0,0C328.98,266.002,329.467,266.358,329.987,266.277z"/>
					<path style="fill:#FFFFFF;stroke:#263238;stroke-linecap:round;stroke-miterlimit:10;" d="M330.393,268.885l10.575-1.646
						c0.52-0.081,0.876-0.568,0.795-1.088l0,0c-0.081-0.52-0.568-0.876-1.088-0.795l-10.575,1.646
						c-0.52,0.081-0.876,0.568-0.795,1.088l0,0C329.386,268.61,329.873,268.966,330.393,268.885z"/>
				</g>
				<g>
					<path style="fill:#263238;stroke:#263238;stroke-linecap:round;stroke-miterlimit:10;" d="M327.918,278.914
						c0.301,1.932,2.11,3.254,4.042,2.953c1.932-0.301,3.254-2.11,2.953-4.042s-2.11-3.254-4.042-2.953
						C328.939,275.173,327.617,276.983,327.918,278.914z"/>
					<path style="fill:#FFFFFF;stroke:#263238;stroke-linecap:round;stroke-miterlimit:10;" d="M331.783,277.815l10.575-1.646
						c0.52-0.081,0.876-0.568,0.795-1.088l0,0c-0.081-0.52-0.568-0.876-1.088-0.795l-10.575,1.646
						c-0.52,0.081-0.876,0.568-0.795,1.088l0,0C330.775,277.54,331.263,277.896,331.783,277.815z"/>
					<path style="fill:#FFFFFF;stroke:#263238;stroke-linecap:round;stroke-miterlimit:10;" d="M332.189,280.423l10.575-1.646
						c0.52-0.081,0.876-0.568,0.795-1.088l0,0c-0.081-0.52-0.568-0.876-1.088-0.795l-10.575,1.646
						c-0.52,0.081-0.876,0.568-0.795,1.088l0,0C331.181,280.148,331.668,280.504,332.189,280.423z"/>
				</g>
				<g>
					<path style="fill:#263238;stroke:#263238;stroke-linecap:round;stroke-miterlimit:10;" d="M329.713,290.453
						c0.301,1.932,2.11,3.254,4.042,2.953c1.932-0.301,3.254-2.11,2.953-4.042c-0.301-1.932-2.11-3.254-4.042-2.953
						C330.735,286.711,329.413,288.521,329.713,290.453z"/>
					<path style="fill:#FFFFFF;stroke:#263238;stroke-linecap:round;stroke-miterlimit:10;" d="M333.578,289.353l10.575-1.646
						c0.52-0.081,0.876-0.568,0.795-1.088l0,0c-0.081-0.52-0.568-0.876-1.088-0.795l-10.575,1.646
						c-0.52,0.081-0.876,0.568-0.795,1.088l0,0C332.571,289.078,333.058,289.434,333.578,289.353z"/>
					<path style="fill:#FFFFFF;stroke:#263238;stroke-linecap:round;stroke-miterlimit:10;" d="M333.984,291.961l10.575-1.646
						c0.52-0.081,0.876-0.568,0.795-1.088l0,0c-0.081-0.52-0.568-0.876-1.088-0.795l-10.575,1.646
						c-0.52,0.081-0.876,0.568-0.795,1.088l0,0C332.977,291.686,333.464,292.042,333.984,291.961z"/>
				</g>
				<g>
					<path style="fill:#263238;stroke:#263238;stroke-linecap:round;stroke-miterlimit:10;" d="M331.509,301.991
						c0.301,1.932,2.11,3.254,4.042,2.953c1.932-0.301,3.254-2.11,2.953-4.042c-0.301-1.932-2.11-3.254-4.042-2.953
						C332.531,298.25,331.208,300.059,331.509,301.991z"/>
					<path style="fill:#FFFFFF;stroke:#263238;stroke-linecap:round;stroke-miterlimit:10;" d="M335.374,300.892l10.575-1.646
						c0.52-0.081,0.876-0.568,0.795-1.088l0,0c-0.081-0.52-0.568-0.876-1.088-0.795l-10.575,1.646
						c-0.52,0.081-0.876,0.568-0.795,1.088l0,0C334.367,300.617,334.854,300.973,335.374,300.892z"/>
					<path style="fill:#FFFFFF;stroke:#263238;stroke-linecap:round;stroke-miterlimit:10;" d="M335.78,303.499l10.575-1.646
						c0.52-0.081,0.876-0.568,0.795-1.088l0,0c-0.081-0.52-0.568-0.876-1.088-0.795l-10.575,1.646
						c-0.52,0.081-0.876,0.568-0.795,1.088l0,0C334.772,303.224,335.26,303.58,335.78,303.499z"/>
				</g>
				<g>
					<path style="fill:#263238;stroke:#263238;stroke-linecap:round;stroke-miterlimit:10;" d="M333.305,313.529
						c0.301,1.932,2.11,3.254,4.042,2.953c1.932-0.301,3.254-2.11,2.953-4.042c-0.301-1.932-2.11-3.254-4.042-2.953
						C334.326,309.788,333.004,311.597,333.305,313.529z"/>
					<path style="fill:#FFFFFF;stroke:#263238;stroke-linecap:round;stroke-miterlimit:10;" d="M337.17,312.43l10.575-1.646
						c0.52-0.081,0.876-0.568,0.795-1.088l0,0c-0.081-0.52-0.568-0.876-1.088-0.795l-10.575,1.646
						c-0.52,0.081-0.876,0.568-0.795,1.088l0,0C336.162,312.155,336.65,312.511,337.17,312.43z"/>
					<path style="fill:#FFFFFF;stroke:#263238;stroke-linecap:round;stroke-miterlimit:10;" d="M337.575,315.037l10.575-1.646
						c0.52-0.081,0.876-0.568,0.795-1.088l0,0c-0.081-0.52-0.568-0.876-1.088-0.795l-10.575,1.646
						c-0.52,0.081-0.876,0.568-0.795,1.088l0,0C336.568,314.762,337.055,315.118,337.575,315.037z"/>
				</g>
				<g>
					<path style="fill:#263238;stroke:#263238;stroke-linecap:round;stroke-miterlimit:10;" d="M335.1,325.067
						c0.301,1.932,2.11,3.254,4.042,2.953c1.932-0.301,3.254-2.11,2.953-4.042c-0.301-1.932-2.11-3.254-4.042-2.953
						C336.122,321.326,334.799,323.135,335.1,325.067z"/>
					<path style="fill:#FFFFFF;stroke:#263238;stroke-linecap:round;stroke-miterlimit:10;" d="M338.965,323.968l10.575-1.646
						c0.52-0.081,0.876-0.568,0.795-1.088l0,0c-0.081-0.52-0.568-0.876-1.088-0.795l-10.575,1.646
						c-0.52,0.081-0.876,0.568-0.795,1.088l0,0C337.958,323.693,338.445,324.049,338.965,323.968z"/>
					<path style="fill:#FFFFFF;stroke:#263238;stroke-linecap:round;stroke-miterlimit:10;" d="M339.371,326.576l10.575-1.646
						c0.52-0.081,0.876-0.568,0.795-1.088l0,0c-0.081-0.52-0.568-0.876-1.088-0.795l-10.575,1.646
						c-0.52,0.081-0.876,0.568-0.795,1.088l0,0C338.364,326.301,338.851,326.657,339.371,326.576z"/>
				</g>
				<g>
					<path style="fill:#263238;stroke:#263238;stroke-linecap:round;stroke-miterlimit:10;" d="M336.896,336.605
						c0.301,1.932,2.11,3.254,4.042,2.953c1.932-0.301,3.254-2.11,2.953-4.042c-0.301-1.932-2.11-3.254-4.042-2.953
						C337.917,332.864,336.595,334.674,336.896,336.605z"/>
					<path style="fill:#FFFFFF;stroke:#263238;stroke-linecap:round;stroke-miterlimit:10;" d="M340.761,335.506l10.575-1.646
						c0.52-0.081,0.876-0.568,0.795-1.088l0,0c-0.081-0.52-0.568-0.876-1.088-0.795l-10.575,1.646
						c-0.52,0.081-0.876,0.568-0.795,1.088l0,0C339.753,335.231,340.241,335.587,340.761,335.506z"/>
					<path style="fill:#FFFFFF;stroke:#263238;stroke-linecap:round;stroke-miterlimit:10;" d="M341.167,338.114l10.575-1.646
						c0.52-0.081,0.876-0.568,0.795-1.088l0,0c-0.081-0.52-0.568-0.876-1.088-0.795l-10.575,1.646
						c-0.52,0.081-0.876,0.568-0.795,1.088l0,0C340.159,337.839,340.646,338.195,341.167,338.114z"/>
				</g>
				<g>
					<path style="fill:#263238;stroke:#263238;stroke-linecap:round;stroke-miterlimit:10;" d="M338.691,348.143
						c0.301,1.932,2.11,3.254,4.042,2.953c1.932-0.301,3.254-2.11,2.953-4.042s-2.11-3.254-4.042-2.953
						C339.713,344.402,338.391,346.212,338.691,348.143z"/>
					<path style="fill:#FFFFFF;stroke:#263238;stroke-linecap:round;stroke-miterlimit:10;" d="M342.556,347.044l10.575-1.646
						c0.52-0.081,0.876-0.568,0.795-1.088l0,0c-0.081-0.52-0.568-0.876-1.088-0.795l-10.575,1.646
						c-0.52,0.081-0.876,0.568-0.795,1.088l0,0C341.549,346.769,342.036,347.125,342.556,347.044z"/>
					<path style="fill:#FFFFFF;stroke:#263238;stroke-linecap:round;stroke-miterlimit:10;" d="M342.962,349.652l10.575-1.646
						c0.52-0.081,0.876-0.568,0.795-1.088l0,0c-0.081-0.52-0.568-0.876-1.088-0.795l-10.575,1.646
						c-0.52,0.081-0.876,0.568-0.795,1.088l0,0C341.955,349.377,342.442,349.733,342.962,349.652z"/>
				</g>
				<g>
					<path style="fill:#263238;stroke:#263238;stroke-linecap:round;stroke-miterlimit:10;" d="M340.487,359.682
						c0.301,1.932,2.11,3.254,4.042,2.953c1.932-0.301,3.254-2.11,2.953-4.042c-0.301-1.932-2.11-3.254-4.042-2.953
						C341.509,355.94,340.186,357.75,340.487,359.682z"/>
					<path style="fill:#FFFFFF;stroke:#263238;stroke-linecap:round;stroke-miterlimit:10;" d="M344.352,358.583l10.575-1.646
						c0.52-0.081,0.876-0.568,0.795-1.088l0,0c-0.081-0.52-0.568-0.876-1.088-0.795l-10.575,1.646
						c-0.52,0.081-0.876,0.568-0.795,1.088l0,0C343.345,358.307,343.832,358.664,344.352,358.583z"/>
					<path style="fill:#FFFFFF;stroke:#263238;stroke-linecap:round;stroke-miterlimit:10;" d="M344.758,361.19l10.575-1.646
						c0.52-0.081,0.876-0.568,0.795-1.088l0,0c-0.081-0.52-0.568-0.876-1.088-0.795l-10.575,1.646
						c-0.52,0.081-0.876,0.568-0.795,1.088l0,0C343.75,360.915,344.238,361.271,344.758,361.19z"/>
				</g>
				<g>
					<path style="fill:#263238;stroke:#263238;stroke-linecap:round;stroke-miterlimit:10;" d="M342.283,371.22
						c0.301,1.932,2.11,3.254,4.042,2.953c1.932-0.301,3.254-2.11,2.953-4.042c-0.301-1.932-2.11-3.254-4.042-2.953
						C343.304,367.479,341.982,369.288,342.283,371.22z"/>
					<path style="fill:#FFFFFF;stroke:#263238;stroke-linecap:round;stroke-miterlimit:10;" d="M346.148,370.121l10.575-1.646
						c0.52-0.081,0.876-0.568,0.795-1.088l0,0c-0.081-0.52-0.568-0.876-1.088-0.795l-10.575,1.646
						c-0.52,0.081-0.876,0.568-0.795,1.088l0,0C345.14,369.846,345.628,370.202,346.148,370.121z"/>
					<path style="fill:#FFFFFF;stroke:#263238;stroke-linecap:round;stroke-miterlimit:10;" d="M346.553,372.728l10.575-1.646
						c0.52-0.081,0.876-0.568,0.795-1.088l0,0c-0.081-0.52-0.568-0.876-1.088-0.795l-10.575,1.646
						c-0.52,0.081-0.876,0.568-0.795,1.088l0,0C345.546,372.453,346.033,372.809,346.553,372.728z"/>
				</g>
			</g>
			<g style="opacity:0.3;">
				<g>
					<g>
						<g>
							
								<line style="fill:none;stroke:#000000;stroke-linecap:round;stroke-miterlimit:10;" x1="191.084" y1="175.514" x2="193.711" y2="175.105"/>
							
								<line style="fill:none;stroke:#000000;stroke-linecap:round;stroke-miterlimit:10;" x1="196.338" y1="174.696" x2="198.965" y2="174.288"/>
						</g>
						<g>
							
								<line style="fill:none;stroke:#000000;stroke-linecap:round;stroke-miterlimit:10;" x1="165.377" y1="183.221" x2="168.004" y2="182.812"/>
							
								<line style="fill:none;stroke:#000000;stroke-linecap:round;stroke-miterlimit:10;" x1="170.631" y1="182.403" x2="173.258" y2="181.994"/>
							
								<line style="fill:none;stroke:#000000;stroke-linecap:round;stroke-miterlimit:10;" x1="175.885" y1="181.586" x2="178.512" y2="181.177"/>
							
								<line style="fill:none;stroke:#000000;stroke-linecap:round;stroke-miterlimit:10;" x1="181.139" y1="180.768" x2="183.766" y2="180.359"/>
							
								<line style="fill:none;stroke:#000000;stroke-linecap:round;stroke-miterlimit:10;" x1="186.393" y1="179.95" x2="189.02" y2="179.542"/>
							
								<line style="fill:none;stroke:#000000;stroke-linecap:round;stroke-miterlimit:10;" x1="191.647" y1="179.133" x2="194.274" y2="178.724"/>
							
								<line style="fill:none;stroke:#000000;stroke-linecap:round;stroke-miterlimit:10;" x1="196.902" y1="178.315" x2="199.529" y2="177.906"/>
						</g>
						<g>
							
								<line style="fill:none;stroke:#000000;stroke-linecap:round;stroke-miterlimit:10;" x1="165.94" y1="186.84" x2="168.567" y2="186.431"/>
							
								<line style="fill:none;stroke:#000000;stroke-linecap:round;stroke-miterlimit:10;" x1="171.194" y1="186.022" x2="173.821" y2="185.613"/>
							
								<line style="fill:none;stroke:#000000;stroke-linecap:round;stroke-miterlimit:10;" x1="176.449" y1="185.204" x2="179.076" y2="184.796"/>
							
								<line style="fill:none;stroke:#000000;stroke-linecap:round;stroke-miterlimit:10;" x1="181.702" y1="184.387" x2="184.33" y2="183.978"/>
							
								<line style="fill:none;stroke:#000000;stroke-linecap:round;stroke-miterlimit:10;" x1="186.957" y1="183.569" x2="189.584" y2="183.16"/>
							
								<line style="fill:none;stroke:#000000;stroke-linecap:round;stroke-miterlimit:10;" x1="192.211" y1="182.751" x2="194.838" y2="182.342"/>
							
								<line style="fill:none;stroke:#000000;stroke-linecap:round;stroke-miterlimit:10;" x1="197.465" y1="181.934" x2="200.092" y2="181.525"/>
						</g>
						<g>
							
								<line style="fill:none;stroke:#000000;stroke-linecap:round;stroke-miterlimit:10;" x1="166.503" y1="190.458" x2="169.13" y2="190.049"/>
							
								<line style="fill:none;stroke:#000000;stroke-linecap:round;stroke-miterlimit:10;" x1="171.757" y1="189.641" x2="174.385" y2="189.232"/>
							
								<line style="fill:none;stroke:#000000;stroke-linecap:round;stroke-miterlimit:10;" x1="177.012" y1="188.823" x2="179.639" y2="188.414"/>
							
								<line style="fill:none;stroke:#000000;stroke-linecap:round;stroke-miterlimit:10;" x1="182.266" y1="188.005" x2="184.893" y2="187.596"/>
							
								<line style="fill:none;stroke:#000000;stroke-linecap:round;stroke-miterlimit:10;" x1="187.52" y1="187.188" x2="190.147" y2="186.779"/>
							
								<line style="fill:none;stroke:#000000;stroke-linecap:round;stroke-miterlimit:10;" x1="192.774" y1="186.37" x2="195.401" y2="185.961"/>
							
								<line style="fill:none;stroke:#000000;stroke-linecap:round;stroke-miterlimit:10;" x1="198.028" y1="185.552" x2="200.655" y2="185.144"/>
						</g>
						<g>
							
								<line style="fill:none;stroke:#000000;stroke-linecap:round;stroke-miterlimit:10;" x1="167.067" y1="194.077" x2="169.694" y2="193.668"/>
							
								<line style="fill:none;stroke:#000000;stroke-linecap:round;stroke-miterlimit:10;" x1="172.321" y1="193.259" x2="174.948" y2="192.85"/>
							
								<line style="fill:none;stroke:#000000;stroke-linecap:round;stroke-miterlimit:10;" x1="177.575" y1="192.442" x2="180.202" y2="192.033"/>
							
								<line style="fill:none;stroke:#000000;stroke-linecap:round;stroke-miterlimit:10;" x1="182.829" y1="191.624" x2="185.456" y2="191.215"/>
							
								<line style="fill:none;stroke:#000000;stroke-linecap:round;stroke-miterlimit:10;" x1="188.083" y1="190.806" x2="190.71" y2="190.398"/>
							
								<line style="fill:none;stroke:#000000;stroke-linecap:round;stroke-miterlimit:10;" x1="193.337" y1="189.989" x2="195.964" y2="189.58"/>
							
								<line style="fill:none;stroke:#000000;stroke-linecap:round;stroke-miterlimit:10;" x1="198.591" y1="189.171" x2="201.218" y2="188.762"/>
						</g>
					</g>
					<g>
						<g>
							
								<line style="fill:none;stroke:#000000;stroke-linecap:round;stroke-miterlimit:10;" x1="164.075" y1="174.853" x2="166.702" y2="174.444"/>
							
								<line style="fill:none;stroke:#000000;stroke-linecap:round;stroke-miterlimit:10;" x1="169.329" y1="174.035" x2="171.956" y2="173.626"/>
							
								<line style="fill:none;stroke:#000000;stroke-linecap:round;stroke-miterlimit:10;" x1="174.583" y1="173.217" x2="177.21" y2="172.809"/>
							
								<line style="fill:none;stroke:#000000;stroke-linecap:round;stroke-miterlimit:10;" x1="179.837" y1="172.4" x2="182.464" y2="171.991"/>
							
								<line style="fill:none;stroke:#000000;stroke-linecap:round;stroke-miterlimit:10;" x1="185.091" y1="171.582" x2="187.718" y2="171.173"/>
							
								<line style="fill:none;stroke:#000000;stroke-linecap:round;stroke-miterlimit:10;" x1="190.345" y1="170.764" x2="192.972" y2="170.356"/>
							
								<line style="fill:none;stroke:#000000;stroke-linecap:round;stroke-miterlimit:10;" x1="195.599" y1="169.947" x2="198.226" y2="169.538"/>
						</g>
					</g>
					
						<line style="fill:none;stroke:#000000;stroke-linecap:round;stroke-miterlimit:10;" x1="198.769" y1="171.538" x2="164.165" y2="176.923"/>
					
						<line style="fill:none;stroke:#000000;stroke-linecap:round;stroke-miterlimit:10;" x1="173.775" y1="168.71" x2="187.119" y2="166.634"/>
				</g>
				
					<line style="fill:none;stroke:#000000;stroke-linecap:round;stroke-miterlimit:10;" x1="157.19" y1="206.03" x2="304.418" y2="183.118"/>
				
					<line style="fill:none;stroke:#000000;stroke-linecap:round;stroke-miterlimit:10;" x1="159.035" y1="217.887" x2="306.263" y2="194.975"/>
				
					<line style="fill:none;stroke:#000000;stroke-linecap:round;stroke-miterlimit:10;" x1="160.88" y1="229.745" x2="308.108" y2="206.833"/>
				
					<line style="fill:none;stroke:#000000;stroke-linecap:round;stroke-miterlimit:10;" x1="162.726" y1="241.602" x2="309.953" y2="218.69"/>
				
					<line style="fill:none;stroke:#000000;stroke-linecap:round;stroke-miterlimit:10;" x1="164.571" y1="253.459" x2="311.799" y2="230.547"/>
				
					<line style="fill:none;stroke:#000000;stroke-linecap:round;stroke-miterlimit:10;" x1="166.416" y1="265.316" x2="313.644" y2="242.404"/>
				
					<line style="fill:none;stroke:#000000;stroke-linecap:round;stroke-miterlimit:10;" x1="168.261" y1="277.174" x2="315.489" y2="254.262"/>
				
					<line style="fill:none;stroke:#000000;stroke-linecap:round;stroke-miterlimit:10;" x1="170.107" y1="289.031" x2="317.335" y2="266.119"/>
				
					<line style="fill:none;stroke:#000000;stroke-linecap:round;stroke-miterlimit:10;" x1="171.952" y1="300.888" x2="319.18" y2="277.976"/>
				
					<line style="fill:none;stroke:#000000;stroke-linecap:round;stroke-miterlimit:10;" x1="173.797" y1="312.746" x2="321.025" y2="289.834"/>
				
					<line style="fill:none;stroke:#000000;stroke-linecap:round;stroke-miterlimit:10;" x1="175.642" y1="324.603" x2="322.87" y2="301.691"/>
				
					<line style="fill:none;stroke:#000000;stroke-linecap:round;stroke-miterlimit:10;" x1="177.488" y1="336.46" x2="324.715" y2="313.548"/>
				
					<line style="fill:none;stroke:#000000;stroke-linecap:round;stroke-miterlimit:10;" x1="179.333" y1="348.317" x2="326.561" y2="325.405"/>
				
					<line style="fill:none;stroke:#000000;stroke-linecap:round;stroke-miterlimit:10;" x1="183.715" y1="376.478" x2="330.943" y2="353.566"/>
				
					<line style="fill:none;stroke:#000000;stroke-linecap:round;stroke-miterlimit:10;" x1="185.176" y1="385.865" x2="332.404" y2="362.953"/>
				
					<line style="fill:none;stroke:#000000;stroke-linecap:round;stroke-miterlimit:10;" x1="186.637" y1="395.252" x2="333.865" y2="372.34"/>
			</g>
		</g>
		<g>
			<path style="fill:none;stroke:#263238;stroke-linecap:round;stroke-miterlimit:10;" d="M178.194,217.436
				c0,0-12.559,13.593-5.302,11.452c7.257-2.141,17.192-16.338,15.074-10.442c-2.119,5.896-1.997,9.925,1.417,5.852
				c3.414-4.074,5.313-4.875,4.633-2.745c-0.681,2.13,2.13,0.681,2.13,0.681s6.949-4.118,6.269-1.988
				c-0.681,2.13-1.175,2.207,0.802,1.899c1.976-0.308,6.423-0.999,6.423-0.999s-0.417,0.571,5.511-0.352
				c5.929-0.923,8.245-2.295,11.21-2.757"/>
			<path style="fill:none;stroke:#263238;stroke-linecap:round;stroke-miterlimit:10;" d="M172.486,236.035
				c0,0,9.683-6.061,10.902-4.733c1.219,1.328-0.45,3.612,3.92,2.426c4.37-1.186,8.355-4.842,8.662-2.866
				c0.308,1.976,3.118,0.527,3.118,0.527l2.47-0.384c0,0,4.523-0.198,5.929-0.923c1.405-0.725,2.876-7.532,1.79,1.745
				c-1.086,9.277-4.864,1.263,4.139-2.668c9.003-3.931,10.683,0.362,10.683,0.362s0.988-0.154,2.887-0.955
				c1.899-0.802,3.568-3.085,5.358-1.34c1.79,1.746,4.973-3.81,4.973-3.81s1.559,0.263,3.689,0.944s3.612,0.45,3.612,0.45
				s2.547,0.11,4.523-0.198c1.976-0.308,3.645-2.591,5.281-1.834c1.636,0.758,4.095-6.203,2.855,2.086
				c-1.24,8.289-9.255,12.067-5.994,7.005c3.26-5.062,7.246-8.718,10.891-11.309c3.645-2.591,4.71-2.251,5.512-0.352
				c0.801,1.899,1.79,1.745,3.689,0.944c1.899-0.802,0.263-1.559,1.899-0.802c1.636,0.758,2.13,0.681,3.612,0.45
				c1.482-0.231-5.467,3.887,1.482-0.231s9.43-20.696,5.796-11.528c-3.634,9.168-2.261,11.484,2.603,10.221"/>
			<path style="fill:none;stroke:#263238;stroke-linecap:round;stroke-miterlimit:10;" d="M173.541,252.569
				c0,0,11.879-11.463,11.154-12.868c-0.725-1.405-4.523,0.198-7.29,5.183c-2.766,4.985-0.823,7.718,6.621,3.524
				c7.443-4.195-3.382,1.032,4.26,1.361c7.641,0.329,9.914-4.579,10.145-3.097c0.231,1.482-2.317,1.373,3.689,0.944
				c6.005-0.429,3.074-3.008,9.233-2.449c6.159,0.559,8.893-1.384,8.893-1.384l3.952-0.615c0,0-7.982,0.736,2.393-0.878
				c10.375-1.615,14.953-14.471,9.947-7.62c-5.006,6.851-2.645,9.014,2.482,6.192c5.127-2.822,5.127-2.822,5.127-2.822
				s6.488-7.082,3.426,2.503c-3.063,9.585-6.686,2.559,4.71-2.251c11.396-4.81,11.1-0.209,14.899-1.813
				c3.799-1.603,3.183-5.556,5.698-2.405c2.514,3.151,2.361,2.163,6.313,1.548s2.888-0.955,6.346-1.493
				c3.458-0.538,3.953-0.615,7.411-1.153"/>
			<path style="fill:none;stroke:#263238;stroke-linecap:round;stroke-miterlimit:10;" d="M175.541,288.185
				c0,0,8.278-5.336,9.595-13.132s-5.204,2.328-4.501,13.351c0.703,11.023-3.162-4.062,8.387-7.884
				c11.55-3.821-1.021,3.195,0.275,5.017c1.296,1.822,10.748-5.721,10.639-3.174c-0.11,2.547,2.02,3.228,7.828-1.724
				c5.808-4.952-3.656-3.985-4.106-0.373c-0.45,3.612,2.361,2.163,9.541-0.473c7.18-2.635,0.154,0.988,4.6,0.296
				c4.446-0.692,14.239-9.3,12.307-5.457c-1.932,3.843-0.065,6.082,2.097,3.722c2.163-2.361,6.751-8.641,7.136-6.171
				c0.384,2.47-0.887,4.186-0.887,4.186"/>
		</g>
	</g>
</g>
<g id="Highlighter_Pen">
	<g>
		<path style="opacity:0.3;" d="M129.127,194.095c-0.165-0.185-0.368-0.378-0.614-0.577c-0.493-0.397-1.162-0.812-2.073-1.216
			c-0.125-0.055-0.276-0.109-0.439-0.162c-0.034-0.011-0.07-0.022-0.106-0.033c-3.94-1.214-17.412-1.799-21.937-1.965
			c-2.333-0.085-4.452,1.429-5.048,3.686c-0.009,0.036-0.019,0.072-0.028,0.109C97.966,197.608,84.3,288.15,84.3,288.15
			s-0.097,2.038-0.235,5.127c-0.061,1.373-0.13,2.953-0.201,4.654c-0.018,0.425-0.036,0.858-0.054,1.297
			c-0.036,0.878-0.073,1.781-0.109,2.697c-0.127,3.209-0.251,6.588-0.345,9.674c-0.067,2.204-0.118,4.258-0.144,5.993
			c-0.021,1.388-0.025,2.572-0.008,3.464c0.051,2.678,0.107,4.726,0.345,6.274c0.396,2.58,1.294,3.769,3.508,4.163
			c0.553,0.098,1.354,0.215,2.325,0.337c0.194,0.024,0.395,0.049,0.603,0.074c0.829,0.099,1.758,0.198,2.748,0.293
			c0.247,0.024,0.499,0.047,0.753,0.07c0.763,0.069,1.555,0.133,2.359,0.191c0.536,0.038,1.077,0.074,1.619,0.105
			c0.542,0.031,1.085,0.059,1.623,0.081c1.077,0.045,2.136,0.071,3.139,0.071c1.692,0,3.22-0.076,4.406-0.257
			c0.002,0,0.004-0.001,0.006-0.001c0.042-0.007,0.089-0.012,0.13-0.019c0.13-0.021,0.251-0.045,0.372-0.069
			c0.016-0.003,0.034-0.006,0.05-0.009c0.143-0.029,0.278-0.061,0.408-0.094c0.025-0.007,0.053-0.012,0.078-0.019
			c0.148-0.04,0.286-0.082,0.413-0.128c0.24-0.087,0.469-0.173,0.688-0.258c0.219-0.086,0.429-0.171,0.63-0.256
			c1.003-0.425,1.78-0.846,2.414-1.297c0.254-0.18,0.485-0.365,0.699-0.557c0.214-0.191,0.41-0.39,0.595-0.597
			c0.092-0.104,0.182-0.209,0.269-0.318c0.348-0.433,0.66-0.906,0.978-1.436c0.003-0.004,0.006-0.013,0.009-0.018
			c0.037-0.064,0.078-0.146,0.123-0.253c0.018-0.042,0.038-0.102,0.057-0.15c0.032-0.083,0.064-0.161,0.1-0.263
			c0.024-0.068,0.051-0.153,0.076-0.229c0.034-0.103,0.068-0.2,0.105-0.318c0.027-0.086,0.057-0.189,0.086-0.283
			c0.039-0.127,0.076-0.25,0.117-0.391c0.03-0.103,0.063-0.22,0.094-0.33c0.043-0.15,0.085-0.297,0.13-0.46
			c0.035-0.127,0.072-0.266,0.108-0.4c0.044-0.162,0.087-0.32,0.132-0.492c0.038-0.145,0.078-0.301,0.118-0.452
			c0.048-0.184,0.095-0.365,0.144-0.558c0.039-0.154,0.08-0.318,0.121-0.477c0.05-0.199,0.1-0.395,0.151-0.602
			c0.044-0.178,0.09-0.364,0.135-0.547c0.051-0.21,0.103-0.418,0.156-0.636c0.045-0.186,0.091-0.378,0.137-0.569
			c0.054-0.225,0.108-0.449,0.163-0.681c0.048-0.201,0.096-0.407,0.145-0.613c0.055-0.232,0.109-0.463,0.165-0.701
			c0.051-0.217,0.102-0.438,0.153-0.66c0.056-0.241,0.112-0.482,0.169-0.727c0.017-0.072,0.033-0.141,0.049-0.214
			c0.032-0.138,0.064-0.282,0.096-0.421c0.062-0.27,0.124-0.54,0.186-0.814c0.048-0.211,0.096-0.424,0.144-0.637
			c0.063-0.276,0.125-0.552,0.188-0.832c0.05-0.221,0.099-0.443,0.149-0.666c0.061-0.275,0.123-0.549,0.184-0.826
			c0.054-0.243,0.108-0.486,0.162-0.731c0.058-0.263,0.116-0.525,0.174-0.79c0.056-0.253,0.111-0.507,0.167-0.761
			c0.057-0.263,0.115-0.525,0.172-0.789c0.026-0.12,0.052-0.24,0.079-0.361c0.031-0.14,0.061-0.281,0.091-0.422
			c0.056-0.259,0.112-0.516,0.168-0.775c0.055-0.257,0.111-0.514,0.166-0.771c0.057-0.268,0.115-0.535,0.172-0.802
			c0.055-0.258,0.11-0.516,0.165-0.773c0.054-0.254,0.107-0.506,0.161-0.758c0.058-0.275,0.116-0.549,0.174-0.823
			c0.051-0.243,0.102-0.484,0.153-0.725c0.053-0.254,0.106-0.508,0.159-0.76c0.055-0.264,0.11-0.526,0.164-0.788
			c0.052-0.252,0.104-0.503,0.156-0.752c0.048-0.23,0.094-0.457,0.141-0.684c0.035-0.17,0.071-0.343,0.105-0.511
			c0.02-0.098,0.039-0.192,0.059-0.29c0.046-0.223,0.09-0.442,0.135-0.662c0.051-0.251,0.102-0.501,0.152-0.747
			c0.044-0.219,0.088-0.434,0.131-0.649c0.052-0.256,0.103-0.512,0.153-0.762c0.035-0.177,0.07-0.349,0.104-0.523
			c0.038-0.193,0.078-0.391,0.116-0.58c0.015-0.075,0.028-0.144,0.043-0.217c0.034-0.172,0.067-0.338,0.1-0.507
			c0.048-0.245,0.096-0.49,0.143-0.726c0.033-0.171,0.065-0.335,0.097-0.502c0.044-0.227,0.088-0.455,0.13-0.673
			c0.029-0.149,0.055-0.29,0.083-0.435c0.043-0.226,0.087-0.453,0.127-0.668c0.022-0.119,0.043-0.229,0.064-0.344
			c0.041-0.219,0.082-0.439,0.12-0.644c0.021-0.114,0.04-0.217,0.059-0.327c0.035-0.194,0.071-0.389,0.103-0.568
			c0.002-0.012,0.005-0.027,0.007-0.039c0,0,0,0,0,0c0.043-0.243,0.085-0.479,0.122-0.694c0.171-0.999,0.406-3.203,0.686-6.296
			c0.105-1.16,0.217-2.444,0.334-3.837c0.429-5.107,0.931-11.669,1.457-18.862c0.048-0.654,0.096-1.313,0.144-1.977
			c1.975-27.212,4.223-62.15,4.223-62.15S129.954,195.019,129.127,194.095z"/>
		<g>
			<defs>
				<path id="XMLID_1_" d="M79.634,287.147c0,0-1.232,25.765-1.096,32.906c0.136,7.141,0.31,9.806,3.853,10.437
					c3.543,0.63,17.2,2.012,21.032,0.625c3.833-1.387,5-2.6,6.274-4.718c1.273-2.118,7.299-30.561,8.665-38.552
					c1.367-7.991,6.843-93.121,6.843-93.121s0.212-1.811-3.432-3.424c-3.042-1.347-17.72-1.986-22.482-2.16
					c-2.333-0.085-4.453,1.429-5.048,3.686c-0.009,0.036-0.019,0.072-0.028,0.109C93.301,196.605,79.634,287.147,79.634,287.147z"/>
			</defs>
			<use xlink:href="#XMLID_1_"  style="overflow:visible;fill:#C6FF00;"/>
			<clipPath id="XMLID_00000103244009042767381320000004396183775689969067_">
				<use xlink:href="#XMLID_1_"  style="overflow:visible;"/>
			</clipPath>
			<path style="opacity:0.5;clip-path:url(#XMLID_00000103244009042767381320000004396183775689969067_);" d="M101.374,331.532
				c0.828-0.095,1.531-0.23,2.049-0.418c3.833-1.387,5-2.6,6.273-4.718c1.273-2.118,7.299-30.561,8.666-38.552
				c1.367-7.991,6.843-93.121,6.843-93.121s0.212-1.81-3.432-3.424c-0.274-0.121-0.646-0.237-1.093-0.347
				c-0.787,19.749-3.464,43.202-8.149,71.056C108.097,288.374,103.126,320.228,101.374,331.532z"/>
			
				<use xlink:href="#XMLID_1_"  style="overflow:visible;fill:none;stroke:#263238;stroke-linecap:round;stroke-linejoin:round;stroke-miterlimit:10;"/>
		</g>
		<g>
			<defs>
				<path id="XMLID_2_" d="M107.568,290.144c-4.269,0.04-22.659-1.949-25.503-2.551c-0.946-0.2-1.748-0.426-2.402-0.638
					c-0.018,0.117-0.029,0.192-0.029,0.192s-1.232,25.765-1.096,32.906c0.136,7.141,0.31,9.806,3.853,10.437
					c3.543,0.63,17.2,2.012,21.032,0.625c3.833-1.387,5-2.6,6.273-4.718c1.239-2.061,6.977-29.042,8.544-37.859
					C114.635,290.405,111.084,290.111,107.568,290.144z"/>
			</defs>
			<use xlink:href="#XMLID_2_"  style="overflow:visible;fill:#263238;"/>
			<clipPath id="XMLID_00000111181113025045698700000003253803135825074350_">
				<use xlink:href="#XMLID_2_"  style="overflow:visible;"/>
			</clipPath>
			<path style="opacity:0.5;clip-path:url(#XMLID_00000111181113025045698700000003253803135825074350_);" d="M101.374,331.532
				c0.828-0.095,1.531-0.23,2.049-0.418c3.833-1.387,5-2.6,6.273-4.718c1.273-2.118,7.299-30.561,8.666-38.552
				c1.367-7.991,6.843-93.121,6.843-93.121s0.212-1.81-3.432-3.424c-0.274-0.121-0.646-0.237-1.093-0.347
				c-0.787,19.749-3.464,43.202-8.149,71.056C108.097,288.374,103.126,320.228,101.374,331.532z"/>
			
				<path style="opacity:0.26;clip-path:url(#XMLID_00000111181113025045698700000003253803135825074350_);fill:none;stroke:#FFFFFF;stroke-linecap:round;stroke-linejoin:round;stroke-miterlimit:10;" d="
				M107.613,292.524c3.995-0.141,6.752-0.924,8.305-1.282"/>
			
				<path style="clip-path:url(#XMLID_00000111181113025045698700000003253803135825074350_);fill:none;stroke:#FFFFFF;stroke-linecap:round;stroke-linejoin:round;stroke-miterlimit:10;" d="
				M81.086,289.573c0,0,22.575,3.09,26.527,2.951"/>
			
				<use xlink:href="#XMLID_2_"  style="overflow:visible;fill:none;stroke:#263238;stroke-linecap:round;stroke-linejoin:round;stroke-miterlimit:10;"/>
		</g>
	</g>
</g>
<g id="Plant">
	<g>
		
			<ellipse transform="matrix(0.8869 -0.4619 0.4619 0.8869 -24.4786 192.9343)" style="fill:#263238;stroke:#263238;stroke-linecap:round;stroke-linejoin:round;stroke-miterlimit:10;" cx="381.862" cy="146.469" rx="42.912" ry="42.912"/>
		
			<ellipse transform="matrix(0.1235 -0.9923 0.9923 0.1235 190.7962 500.4138)" style="fill:#FFFFFF;stroke:#263238;stroke-linecap:round;stroke-linejoin:round;stroke-miterlimit:10;" cx="378.663" cy="142.204" rx="42.912" ry="42.912"/>
		
			<ellipse transform="matrix(0.1621 -0.9868 0.9868 0.1621 176.9467 492.8017)" style="fill:#263238;stroke:#263238;stroke-linecap:round;stroke-linejoin:round;stroke-miterlimit:10;" cx="378.663" cy="142.204" rx="38.647" ry="38.647"/>
		<g>
			<path style="fill:#C6FF00;" d="M374.132,113.152c0,0-4.265-10.661-11.727-18.124c-7.463-7.463-37.847-12.26-37.847-12.26
				s6.397,5.864,13.326,15.459c6.93,9.595,29.852,31.451,29.852,31.451s-11.194-9.595-21.322-10.661
				c-10.128-1.066-35.715,4.265-37.315,4.265c-1.599,0,9.595,4.264,17.591,7.996c7.996,3.731,38.913,6.93,38.913,6.93
				s-13.326,3.731-22.389,6.93c-9.062,3.198-17.591,26.653-17.591,26.653s11.727-10.661,21.856-13.326
				C357.607,155.798,372,151,372,151s-9.062,10.128-11.194,17.058c-2.132,6.93-0.533,22.922-0.533,22.922
				s4.798-14.926,10.661-20.789c5.864-5.864,12.26-15.992,12.26-15.992s3.732,5.864,7.996,14.926
				c4.264,9.062,6.93,22.389,6.93,22.389s6.93-14.926,6.397-22.389c-0.533-7.463-8.529-20.789-8.529-20.789
				s5.331-3.731,13.327-0.533c7.996,3.198,21.856,16.525,21.856,16.525s-3.198-17.591-8.529-24.521
				c-5.331-6.93-28.252-9.062-28.252-9.062s12.794-7.463,20.789-9.062c7.996-1.599,18.657,2.132,18.657,2.132
				s-12.26-17.058-21.856-18.124c-9.595-1.066-23.988,13.86-23.988,13.86s3.198-15.992,4.264-21.323
				c1.066-5.33-1.066-18.657-1.066-18.657s-5.864,3.198-12.793,13.327C371.467,103.024,374.132,113.152,374.132,113.152z"/>
			<path style="opacity:0.5;" d="M374.132,113.152c0,0-4.265-10.661-11.727-18.124c-7.463-7.463-37.847-12.26-37.847-12.26
				s6.397,5.864,13.326,15.459c6.93,9.595,29.852,31.451,29.852,31.451s-11.194-9.595-21.322-10.661
				c-10.128-1.066-35.715,4.265-37.315,4.265c-1.599,0,9.595,4.264,17.591,7.996c7.996,3.731,38.913,6.93,38.913,6.93
				s-13.326,3.731-22.389,6.93c-9.062,3.198-17.591,26.653-17.591,26.653s11.727-10.661,21.856-13.326
				C357.607,155.798,372,151,372,151s-9.062,10.128-11.194,17.058c-2.132,6.93-0.533,22.922-0.533,22.922
				s4.798-14.926,10.661-20.789c5.864-5.864,12.26-15.992,12.26-15.992s3.732,5.864,7.996,14.926
				c4.264,9.062,6.93,22.389,6.93,22.389s6.93-14.926,6.397-22.389c-0.533-7.463-8.529-20.789-8.529-20.789
				s5.331-3.731,13.327-0.533c7.996,3.198,21.856,16.525,21.856,16.525s-3.198-17.591-8.529-24.521
				c-5.331-6.93-28.252-9.062-28.252-9.062s12.794-7.463,20.789-9.062c7.996-1.599,18.657,2.132,18.657,2.132
				s-12.26-17.058-21.856-18.124c-9.595-1.066-23.988,13.86-23.988,13.86s3.198-15.992,4.264-21.323
				c1.066-5.33-1.066-18.657-1.066-18.657s-5.864,3.198-12.793,13.327C371.467,103.024,374.132,113.152,374.132,113.152z"/>
			<path style="fill:none;stroke:#263238;stroke-width:0.5;stroke-linecap:round;stroke-linejoin:round;stroke-miterlimit:10;" d="
				M384.634,96.927c0.371-1.532,0.778-3.057,1.226-4.564"/>
			<path style="fill:none;stroke:#263238;stroke-width:0.5;stroke-linecap:round;stroke-linejoin:round;stroke-miterlimit:10;" d="
				M349.029,96.923c4.994,3.643,11.234,8.656,14.442,13.031c5.864,7.996,17.591,25.054,17.591,25.054s-0.786-16.906,2.706-34.172"/>
			<path style="fill:none;stroke:#263238;stroke-width:0.5;stroke-linecap:round;stroke-linejoin:round;stroke-miterlimit:10;" d="
				M341.615,91.83c0,0,1.559,0.987,3.883,2.589"/>
			<path style="fill:none;stroke:#263238;stroke-width:0.5;stroke-linecap:round;stroke-linejoin:round;stroke-miterlimit:10;" d="
				M381.062,135.008c0,0,20.256-20.256,28.785-21.856c8.529-1.599,15.992,4.798,15.992,4.798"/>
			<path style="fill:none;stroke:#263238;stroke-width:0.5;stroke-linecap:round;stroke-linejoin:round;stroke-miterlimit:10;" d="
				M344.855,151.948c-4.929,3.142-5.372,4.915-5.372,4.915"/>
			<path style="fill:none;stroke:#263238;stroke-width:0.5;stroke-linecap:round;stroke-linejoin:round;stroke-miterlimit:10;" d="
				M425.306,153.665c0,0-3.198-7.996-14.393-11.727c-11.194-3.731-28.785-4.264-28.785-4.264s-24.667,8.073-33.686,12.288"/>
			<path style="fill:none;stroke:#263238;stroke-width:0.5;stroke-linecap:round;stroke-linejoin:round;stroke-miterlimit:10;" d="
				M371.363,134.63c5.956,1.732,10.765,3.044,10.765,3.044"/>
			<path style="fill:none;stroke:#263238;stroke-width:0.5;stroke-linecap:round;stroke-linejoin:round;stroke-miterlimit:10;" d="
				M333.81,125.159c5.795,0.35,13.248,1.14,17.401,2.919c3.382,1.45,10.049,3.556,16.329,5.426"/>
			<path style="fill:none;stroke:#263238;stroke-width:0.5;stroke-linecap:round;stroke-linejoin:round;stroke-miterlimit:10;" d="
				M325.623,124.88c0,0,1.947,0,4.827,0.113"/>
			<path style="fill:none;stroke:#263238;stroke-width:0.5;stroke-linecap:round;stroke-linejoin:round;stroke-miterlimit:10;" d="
				M381.062,140.872c0,0-14.926,22.389-15.992,27.719c-1.066,5.331-1.066,9.595-1.066,9.595"/>
			<path style="fill:none;stroke:#263238;stroke-width:0.5;stroke-linecap:round;stroke-linejoin:round;stroke-miterlimit:10;" d="
				M387.697,147.915c2.875,3.71,6.322,8.659,7.758,12.68c2.665,7.463,3.731,14.926,3.731,14.926"/>
			<path style="fill:none;stroke:#263238;stroke-width:0.5;stroke-linecap:round;stroke-linejoin:round;stroke-miterlimit:10;" d="
				M383.194,142.471c0,0,1.184,1.315,2.835,3.345"/>
		</g>
		<g>
			<path style="fill:#C6FF00;" d="M367.359,117.746c0,0-2.755-11.147-1.045-21.562c1.709-10.415,23.591-32.034,23.591-32.034
				s-1.776,8.494-1.808,20.33c-0.032,11.836-5.904,42.958-5.904,42.958s3.496-14.323,11.102-21.097
				c7.605-6.774,31.498-17.368,32.797-18.301c1.299-0.933-5.307,9.061-9.625,16.755c-4.319,7.695-27.567,28.326-27.567,28.326
				s13.001-4.742,22.228-7.43c9.227-2.688,29.835,11.389,29.835,11.389s-15.744-1.82-25.526,1.923
				c-9.782,3.743-24.271,8.24-24.271,8.24s13.268,2.941,19.042,7.327c5.774,4.385,13.803,18.308,13.803,18.308
				s-12.603-9.326-20.786-10.668c-8.183-1.343-19.286-5.839-19.286-5.839s0.389,6.939,2.211,16.788
				c1.822,9.848,7.43,22.228,7.43,22.228s-14.335-8.082-18.255-14.455c-3.92-6.373-5.198-21.861-5.198-21.861
				s-6.506,0.078-11.136,7.34c-4.629,7.262-8.114,26.171-8.114,26.171s-7.662-16.154-7.374-24.893
				c0.288-8.738,17.663-23.84,17.663-23.84s-14.745,1.4-22.173,4.765c-7.428,3.365-13.911,12.614-13.911,12.614
				s0.009-21.007,7.182-27.469c7.172-6.463,27.569-2.734,27.569-2.734s-11.925-11.124-15.901-14.832
				c-3.975-3.708-10.016-15.777-10.016-15.777s6.628-0.822,18.165,3.363C363.617,107.964,367.359,117.746,367.359,117.746z"/>
			<path style="fill:none;stroke:#263238;stroke-width:0.5;stroke-linecap:round;stroke-linejoin:round;stroke-miterlimit:10;" d="
				M349.365,110.691c-1.195-1.028-2.415-2.03-3.658-2.992"/>
			<path style="fill:none;stroke:#263238;stroke-width:0.5;stroke-linecap:round;stroke-linejoin:round;stroke-miterlimit:10;" d="
				M378.284,89.921c-1.931,5.872-4.076,13.584-4.13,19.008c-0.099,9.915,0.324,30.611,0.324,30.611s-9.222-14.19-22.129-26.179"/>
			<path style="fill:none;stroke:#263238;stroke-width:0.5;stroke-linecap:round;stroke-linejoin:round;stroke-miterlimit:10;" d="
				M381.335,81.46c0,0-0.691,1.712-1.643,4.368"/>
			<path style="fill:none;stroke:#263238;stroke-width:0.5;stroke-linecap:round;stroke-linejoin:round;stroke-miterlimit:10;" d="
				M374.478,139.54c0,0-28.269-4.639-36.129-0.963c-7.861,3.676-10.192,13.225-10.192,13.225"/>
			<path style="fill:none;stroke:#263238;stroke-width:0.5;stroke-linecap:round;stroke-linejoin:round;stroke-miterlimit:10;" d="
				M413.769,132.183c5.837-0.323,7.231,0.859,7.231,0.859"/>
			<path style="fill:none;stroke:#263238;stroke-width:0.5;stroke-linecap:round;stroke-linejoin:round;stroke-miterlimit:10;" d="
				M349.422,180.502c0,0-2.066-8.36,4.851-17.921c6.917-9.56,20.894-20.254,20.894-20.254s24.745-7.83,34.53-9.666"/>
			<path style="fill:none;stroke:#263238;stroke-width:0.5;stroke-linecap:round;stroke-linejoin:round;stroke-miterlimit:10;" d="
				M382.135,133.576c-3.827,4.881-6.969,8.751-6.969,8.751"/>
			<path style="fill:none;stroke:#263238;stroke-width:0.5;stroke-linecap:round;stroke-linejoin:round;stroke-miterlimit:10;" d="
				M407.115,103.98c-4.503,3.665-10.097,8.653-12.431,12.52c-1.902,3.15-6.089,8.75-10.099,13.932"/>
			<path style="fill:none;stroke:#263238;stroke-width:0.5;stroke-linecap:round;stroke-linejoin:round;stroke-miterlimit:10;" d="
				M413.602,98.978c0,0-1.581,1.136-3.855,2.907"/>
			<path style="fill:none;stroke:#263238;stroke-width:0.5;stroke-linecap:round;stroke-linejoin:round;stroke-miterlimit:10;" d="
				M377.898,144.303c0,0,25.183,9.48,29.158,13.188c3.975,3.708,6.463,7.172,6.463,7.172"/>
			<path style="fill:none;stroke:#263238;stroke-width:0.5;stroke-linecap:round;stroke-linejoin:round;stroke-miterlimit:10;" d="
				M376.617,153.895c-0.171,4.69-0.085,10.721,1.094,14.824c2.188,7.617,5.675,14.3,5.675,14.3"/>
			<path style="fill:none;stroke:#263238;stroke-width:0.5;stroke-linecap:round;stroke-linejoin:round;stroke-miterlimit:10;" d="
				M377.099,146.846c0,0-0.194,1.759-0.352,4.37"/>
		</g>
	</g>
</g>
<g id="Hand">
	<g>
		<path style="opacity:0.3;" d="M387.208,363.327c-1.921-5.41-2.256-33.79-1.827-53.967l11.227,2.427
			c2.037,0.44,4.051,0.087,5.732-0.844c0.424-0.235,0.823-0.513,1.2-0.819c0.362-0.293,0.696-0.619,1.005-0.971
			c1.007-1.147,1.715-2.582,1.957-4.212c0.042-0.281,0.069-0.561,0.082-0.84c0.039-0.834-0.05-1.651-0.251-2.428
			c-0.201-0.777-0.513-1.516-0.922-2.193c-0.272-0.452-0.588-0.877-0.941-1.269c-1.236-1.372-2.939-2.339-4.908-2.632l-13.563-2.015
			c0.125-1.767,0.261-3.131,0.406-3.972c0.249-1.448,0.343-2.759,0.291-3.962c0.202-0.65,0.498-1.605,0.94-3.026
			c1.362-4.387,0.325-10.842-3.407-14.511s-16.971-10.13-20.877-13.52c-3.906-3.389-32.927-24.087-38.142-22.863
			c-5.215,1.224-11.366,8.649-16.623,12.754c-5.256,4.105-24.121,19.538-24.121,19.538c0.06-0.657-9.718,3.298-12.097,7.129
			c-0.4,0.489-0.601,0.943-0.509,1.333c0.392,1.669,1.574,3.601,4.342,4.784l-8.478-1.26c-1.008-0.15-1.972,0.315-2.507,1.124
			c-3.006-0.454-9.118-1.122-13.536,0.089c0,0,7.214,3.525,12.605,4.702c0.281,0.82,0.965,1.481,1.877,1.678l11.248,2.432
			c-0.192,0.608-0.352,1.262-0.464,2.003c-0.091,0.602,0.023,1.214,0.254,1.819c0.048,0.383,0.116,0.776,0.212,1.182
			c1.597,6.802,10.234,15.061,16.54,20.519c6.305,5.457,12.328,14.809,16.07,25.653c3.742,10.844,6.084,20.82,14.4,31.786
			c1.487,1.961,3.042,3.707,4.61,5.27l77.571,48.969C406.602,423.216,390.032,371.276,387.208,363.327z M286.042,278.054
			c-0.135,0.2-0.262,0.4-0.371,0.604l-2.142-0.318C284.321,278.313,285.164,278.213,286.042,278.054z"/>
		<g>
			<g>
				<g>
					<defs>
						<path id="XMLID_3_" d="M361.158,449.905l-49.518-85.599c0,0-5.542-38.89-17.35-54.539
							c-11.808-15.649-28.365-27.072-18.76-35.069c9.606-7.997,34.004-23.294,39.018-22.318
							c5.014,0.976,38.665,17.956,48.172,20.747c9.507,2.792,12.839,6.794,11.421,15.022c-1.418,8.227-2.019,65.784,0.804,73.734
							c2.823,7.949,34.059,64.587,34.059,64.587"/>
					</defs>
					<use xlink:href="#XMLID_3_"  style="overflow:visible;fill:#FFFFFF;"/>
					<clipPath id="XMLID_00000032630842509984011070000013991457510456040606_">
						<use xlink:href="#XMLID_3_"  style="overflow:visible;"/>
					</clipPath>
					<path style="clip-path:url(#XMLID_00000032630842509984011070000013991457510456040606_);fill:#C6FF00;" d="M374.945,361.884
						c-2.823-7.949-2.221-65.506-0.804-73.734c0.869-5.042-0.056-8.493-3.083-11.055c0.226,4.505-0.793,9.434-2.19,13.392
						c-2.671,7.568-4.006,12.91-4.006,12.91s-0.445,27.155,1.335,40.954c1.781,13.8,10.684,38.283,19.142,51.638
						c6.259,9.882,15.193,18.784,19.419,22.748C396.118,402.956,377.118,368.002,374.945,361.884z"/>
					<path style="opacity:0.5;clip-path:url(#XMLID_00000032630842509984011070000013991457510456040606_);fill:#FFFFFF;" d="
						M374.945,361.884c-2.823-7.949-2.221-65.506-0.804-73.734c0.869-5.042-0.056-8.493-3.083-11.055
						c0.226,4.505-0.793,9.434-2.19,13.392c-2.671,7.568-4.006,12.91-4.006,12.91s-0.445,27.155,1.335,40.954
						c1.781,13.8,10.684,38.283,19.142,51.638c6.259,9.882,15.193,18.784,19.419,22.748
						C396.118,402.956,377.118,368.002,374.945,361.884z"/>
					<use xlink:href="#XMLID_3_"  style="overflow:visible;fill:none;stroke:#263238;stroke-linecap:round;stroke-miterlimit:10;"/>
				</g>
				<path style="fill:#C6FF00;" d="M262.476,276.242c0,0,10.684,0,21.813-7.122s7.568-8.458,7.568-8.458s5.787-1.781,9.348-3.116
					c3.561-1.336,8.458-4.897,8.458-4.897s14.245,9.348,20.922,12.019c6.677,2.671,9.833,3.364,9.833,3.364l9.309,12.216
					c0,0-7.568,3.116-12.909,11.129c-5.342,8.013-12.019,18.697-15.135,20.032c-3.116,1.336-1.781,2.671-15.58-2.671
					C292.301,303.397,261.585,284.255,262.476,276.242z"/>
				<path style="opacity:0.5;fill:#FFFFFF;" d="M262.476,276.242c0,0,10.684,0,21.813-7.122s7.568-8.458,7.568-8.458
					s5.787-1.781,9.348-3.116c3.561-1.336,8.458-4.897,8.458-4.897s14.245,9.348,20.922,12.019c6.677,2.671,9.833,3.364,9.833,3.364
					l9.309,12.216c0,0-7.568,3.116-12.909,11.129c-5.342,8.013-12.019,18.697-15.135,20.032c-3.116,1.336-1.781,2.671-15.58-2.671
					C292.301,303.397,261.585,284.255,262.476,276.242z"/>
				<path style="fill:none;stroke:#263238;stroke-linecap:round;stroke-miterlimit:10;" d="M287.143,280.346
					c0,0,10.696-1.315,18.237-15.047c0,0,8.878,3.76,18.12,1.351"/>
				<path style="fill:none;stroke:#263238;stroke-linecap:round;stroke-miterlimit:10;" d="M316.153,270.425
					c0,0-5.168,13.653,5.717,31.726"/>
				<path style="fill:none;stroke:#263238;stroke-linecap:round;stroke-miterlimit:10;" d="M304.724,271.673
					c0,0,5.384,6.631,6.262,12.405"/>
				<path style="fill:none;stroke:#263238;stroke-linecap:round;stroke-miterlimit:10;" d="M314.814,308.538
					c0,0,8.951-5.69,13.782-11.609c4.83-5.919,6.954-12.159,14.503-14.649"/>
				
					<line style="fill:none;stroke:#263238;stroke-linecap:round;stroke-miterlimit:10;" x1="305.38" y1="265.299" x2="303.187" y2="262.708"/>
			</g>
			<g>
				<path style="fill:#263238;stroke:#263238;stroke-linecap:round;stroke-miterlimit:10;" d="M254.779,275.982
					c0,0-9.294-1.885-15.363-0.221c0,0,8.919,4.365,14.333,5.008L254.779,275.982z"/>
				<path style="fill:#C6FF00;stroke:#263238;stroke-linecap:round;stroke-miterlimit:10;" d="M387.298,294.137L255.46,274.549
					c-1.302-0.193-2.539,0.631-2.86,1.908l-0.644,2.556c-0.354,1.405,0.527,2.823,1.942,3.129l130.447,28.203
					c4.656,1.007,9.194-2.133,9.893-6.845l0,0C394.907,298.997,391.8,294.806,387.298,294.137z"/>
				<path style="fill:#263238;stroke:#263238;stroke-linecap:round;stroke-miterlimit:10;" d="M387.298,294.137l-19.926-2.961
					c-3.61,2.112-5.574,6.512-4.535,10.936c0.355,1.511,1.027,2.859,1.918,3.996l19.59,4.235c4.656,1.007,9.194-2.133,9.893-6.845v0
					C394.907,298.997,391.8,294.806,387.298,294.137z"/>
			</g>
			<g>
				<g>
					<defs>
						<path id="XMLID_5_" d="M333.939,306.44c0,0-11.337,2.662-16.404,1.459c-5.067-1.203-15.422-15.757-22.527-20.548
							c-7.106-4.791-11.439-5.927-18.88-7.051c-7.441-1.124-12.577,2.474-10.98,9.276c1.597,6.802,10.234,15.061,16.54,20.519
							c6.305,5.458,12.328,14.809,16.07,25.653c3.742,10.844,6.084,20.82,14.4,31.786s18.702,15.465,22.196,16.081"/>
					</defs>
					<use xlink:href="#XMLID_5_"  style="overflow:visible;fill:#FFFFFF;"/>
					<clipPath id="XMLID_00000112595523287366816270000014520934476308673674_">
						<use xlink:href="#XMLID_5_"  style="overflow:visible;"/>
					</clipPath>
					<path style="clip-path:url(#XMLID_00000112595523287366816270000014520934476308673674_);fill:#C6FF00;" d="M328.314,308.048
						c0,0-0.288-0.145-0.8-0.41c-3.441,0.505-7.475,0.855-9.979,0.261c-5.067-1.203-15.422-15.757-22.527-20.548
						c-7.106-4.791-11.439-5.927-18.88-7.051c-1.273-0.192-2.472-0.236-3.588-0.16c2.244,0.547,9.408,2.56,15.983,7.309
						c7.915,5.717,13.632,20.229,22.427,22.867S328.314,308.048,328.314,308.048z"/>
					<path style="opacity:0.5;clip-path:url(#XMLID_00000112595523287366816270000014520934476308673674_);fill:#FFFFFF;" d="
						M328.314,308.048c0,0-0.288-0.145-0.8-0.41c-3.441,0.505-7.475,0.855-9.979,0.261c-5.067-1.203-15.422-15.757-22.527-20.548
						c-7.106-4.791-11.439-5.927-18.88-7.051c-1.273-0.192-2.472-0.236-3.588-0.16c2.244,0.547,9.408,2.56,15.983,7.309
						c7.915,5.717,13.632,20.229,22.427,22.867S328.314,308.048,328.314,308.048z"/>
					<use xlink:href="#XMLID_5_"  style="overflow:visible;fill:none;stroke:#263238;stroke-linecap:round;stroke-miterlimit:10;"/>
				</g>
				<path style="fill:#FFFFFF;stroke:#263238;stroke-linecap:round;stroke-miterlimit:10;" d="M270.84,294.46
					c0,0,0.536-5.867,8.581-11.345c0,0-5.372-3.523-9.053-2.898s-5.122,2.638-5.684,6.358
					C264.12,290.296,270.84,294.46,270.84,294.46z"/>
				<path style="fill:none;stroke:#263238;stroke-linecap:round;stroke-miterlimit:10;" d="M276.119,300.693
					c0.488,0.502,1.155,1.048,2.064,1.612"/>
				<path style="fill:none;stroke:#263238;stroke-linecap:round;stroke-miterlimit:10;" d="M281.965,286.824
					c0,0-8.537,4.397-7.167,11.252"/>
			</g>
			<g>
				<g>
					<defs>
						<path id="XMLID_4_" d="M374.01,285.549c0,0,0,0,1.362-4.387c1.362-4.387,0.325-10.842-3.407-14.511
							c-3.732-3.669-16.971-10.13-20.877-13.519c-3.906-3.389-32.928-24.087-38.142-22.863c-5.215,1.224-11.366,8.649-16.623,12.754
							c-5.256,4.105-24.121,19.538-24.121,19.538s-13.245,5.741-12.607,8.462c0.639,2.721,3.358,6.149,11.666,5.873
							c8.308-0.276,22.155-8.551,24.263-9.763c2.108-1.212,15.168-9.781,15.168-9.781s5.345,5.444,11.518,8.301
							c6.173,2.857,6.96,3.151,6.96,3.151s1.611,5.842,6.143,8.845"/>
					</defs>
					<use xlink:href="#XMLID_4_"  style="overflow:visible;fill:#FFFFFF;"/>
					<clipPath id="XMLID_00000078754755274291635740000013705126261905194670_">
						<use xlink:href="#XMLID_4_"  style="overflow:visible;"/>
					</clipPath>
					<path style="clip-path:url(#XMLID_00000078754755274291635740000013705126261905194670_);fill:#C6FF00;" d="M366.642,266.894
						c4.799,3.77,5.104,11.232,3.774,17.922l3.593,0.734c0,0,0,0,1.362-4.387c1.362-4.387,0.325-10.842-3.407-14.511
						c-3.732-3.669-16.971-10.13-20.877-13.52c-1.019-0.884-3.757-2.952-7.327-5.496l-0.712,0.117
						C343.049,247.752,360.41,261.997,366.642,266.894z"/>
					<path style="opacity:0.5;clip-path:url(#XMLID_00000078754755274291635740000013705126261905194670_);fill:#FFFFFF;" d="
						M366.642,266.894c4.799,3.77,5.104,11.232,3.774,17.922l3.593,0.734c0,0,0,0,1.362-4.387
						c1.362-4.387,0.325-10.842-3.407-14.511c-3.732-3.669-16.971-10.13-20.877-13.52c-1.019-0.884-3.757-2.952-7.327-5.496
						l-0.712,0.117C343.049,247.752,360.41,261.997,366.642,266.894z"/>
					<path style="clip-path:url(#XMLID_00000078754755274291635740000013705126261905194670_);fill:#C6FF00;" d="M262.476,276.242
						c0,0,10.684,0,21.813-7.122s7.568-8.458,7.568-8.458s5.787-1.781,9.348-3.116c3.561-1.336,8.458-4.897,8.458-4.897
						s14.245,9.348,20.922,12.019c6.677,2.671,9.833,3.364,9.833,3.364l9.309,12.216c0,0-7.568,3.116-12.909,11.129
						c-5.342,8.013-12.019,18.697-15.135,20.032c-3.116,1.336-1.781,2.671-15.58-2.671
						C292.301,303.397,261.585,284.255,262.476,276.242z"/>
					<path style="opacity:0.5;clip-path:url(#XMLID_00000078754755274291635740000013705126261905194670_);fill:#FFFFFF;" d="
						M262.476,276.242c0,0,10.684,0,21.813-7.122s7.568-8.458,7.568-8.458s5.787-1.781,9.348-3.116
						c3.561-1.336,8.458-4.897,8.458-4.897s14.245,9.348,20.922,12.019c6.677,2.671,9.833,3.364,9.833,3.364l9.309,12.216
						c0,0-7.568,3.116-12.909,11.129c-5.342,8.013-12.019,18.697-15.135,20.032c-3.116,1.336-1.781,2.671-15.58-2.671
						C292.301,303.397,261.585,284.255,262.476,276.242z"/>
					<use xlink:href="#XMLID_4_"  style="overflow:visible;fill:none;stroke:#263238;stroke-linecap:round;stroke-miterlimit:10;"/>
				</g>
				<path style="fill:#FFFFFF;stroke:#263238;stroke-linecap:round;stroke-miterlimit:10;" d="M259.596,271.024
					c0,0,1.347,0.641,4.188-0.505c2.841-1.145,8.352-7.224,8.419-7.957C272.269,261.828,260.051,266.85,259.596,271.024z"/>
				<g>
					<path style="fill:none;stroke:#263238;stroke-linecap:round;stroke-miterlimit:10;" d="M310.159,247.651
						c0.122-0.581,0.277-1.172,0.472-1.767"/>
					<path style="fill:none;stroke:#263238;stroke-linecap:round;stroke-miterlimit:10;" d="M310.692,257.353
						c0,0-1.183-3.241-0.854-7.44"/>
				</g>
			</g>
		</g>
	</g>
</g>
</svg>
